<?xml version="1.0" encoding="UTF-8"?><svg id="Layer_1" xmlns="http://www.w3.org/2000/svg" viewBox="0 0 2834.65 2519.69"><defs><style>.cls-1{fill:#1d2656;}</style></defs><path class="cls-1" d="M314.96,0C141.24,0,0,141.24,0,314.96v1417.32c0,173.72,141.24,314.96,314.96,314.96h866.14l-52.66,157.48h-341.04c-87.11,0-157.48,70.37-157.48,157.48s70.37,157.48,157.48,157.48h1259.84c87.11,0,157.48-70.37,157.48-157.48s-70.37-157.48-157.48-157.48h-341.04l-52.66-157.48h866.14c173.72,0,314.96-141.24,314.96-314.96V314.96c0-173.72-141.24-314.96-314.96-314.96H314.96ZM2519.69,314.96v1102.36H314.96V314.96h2204.72Z"/></svg>