<?xml version="1.0" encoding="UTF-8"?><svg id="Layer_1" xmlns="http://www.w3.org/2000/svg" viewBox="0 0 2834.64 2834.65"><defs><style>.cls-1{fill:#1d2656;}</style></defs><path class="cls-1" d="M593.8,0c-127.81,0-231.73,109.53-231.73,244.24v1099.09c0,134.71,103.91,244.24,231.73,244.24h637.24l-38.74,122.12h-250.92c-64.09,0-115.86,54.57-115.86,122.12s51.78,122.12,115.86,122.12h926.9c64.09,0,115.86-54.57,115.86-122.12s-51.78-122.12-115.86-122.12h-250.92l-38.74-122.12h637.24c127.81,0,231.73-109.53,231.73-244.24V244.24c0-134.71-103.91-244.24-231.73-244.24H593.8ZM2215.87,244.24v854.84H593.8V244.24h1622.08Z"/><path class="cls-1" d="M379.44,2247.13c42.29,0,76.36,36.53,76.36,80.48v125.06c0,43.96-34.07,80.48-76.36,80.48H109.25c-4.7,0-8.81-.62-12.92-1.24v160.35h-63.44v-445.13h346.55ZM392.36,2327.61c0-7.43-5.87-13.62-12.92-13.62H109.25c-7.05,0-12.92,6.19-12.92,13.62v125.06c0,7.43,5.87,13.62,12.92,13.62h270.19c7.05,0,12.92-6.19,12.92-13.62v-125.06Z"/><path class="cls-1" d="M573.86,2313.37c-7.05,0-12.92,6.19-12.92,13.62v284.78c0,7.43,5.87,13.62,12.92,13.62h345.38v66.86h-345.38c-42.29,0-76.36-35.91-76.36-80.48v-284.78c0-44.58,34.07-80.48,76.36-80.48h345.38v66.86h-345.38Z"/><path class="cls-1" d="M1617.02,2246.51h72.83l-243.76,445.75h-63.44l-244.35-445.75h73.42l202.64,370.22,202.64-370.22Z"/><path class="cls-1" d="M1800.87,2215.55v66.86h-63.44v-66.86h63.44ZM1737.43,2333.18h63.44v359.08h-63.44v-359.08Z"/><path class="cls-1" d="M2205.57,2413.66v132.49h-283.11v65.62c0,7.43,5.87,13.62,12.92,13.62h270.19v66.86h-270.19c-42.29,0-76.36-35.91-76.36-80.48v-198.11c0-44.58,34.07-80.48,76.36-80.48h193.83c42.29,0,76.36,35.91,76.36,80.48ZM2142.13,2479.29v-65.62c0-7.43-5.87-13.62-12.92-13.62h-193.83c-7.05,0-12.92,6.19-12.92,13.62v65.62h219.68Z"/><path class="cls-1" d="M2820.54,2333.18l-128.05,359.08h-51.69l-114.54-266.83-108.08,266.83-1.17-.62.59.62h-51.1l-133.92-359.08h67.55l92.22,238.35,98.09-238.35h72.25l103.96,238.35,86.34-238.35h67.55Z"/></svg>